<?xml version="1.0" standalone="no"?><!DOCTYPE svg PUBLIC "-//W3C//DTD SVG 1.1//EN" "http://www.w3.org/Graphics/SVG/1.1/DTD/svg11.dtd"><svg t="1705820851506" class="icon" viewBox="0 0 1024 1024" version="1.1" xmlns="http://www.w3.org/2000/svg" p-id="11555" xmlns:xlink="http://www.w3.org/1999/xlink" width="200" height="200"><path d="M85.888 0C38.314667 0 0 39.637333 0 87.210667v758.4L138.752 352.853333h140.032L260.266667 417.493333h2.688c7.936-9.258667 18.474667-17.194667 31.658666-26.453333 13.226667-9.216 26.453333-17.152 40.96-25.088 14.592-7.936 30.421333-13.226667 47.616-18.474667 17.152-5.290667 34.346667-6.613333 51.541334-6.613333 36.992 0 67.370667 6.570667 93.781333 18.474667 26.453333 11.904 46.250667 30.378667 62.08 52.864 13.226667 19.797333 21.333333 43.477333 25.301333 71.210666 0.256 2.56 1.152 5.76 1.152 8.064 2.645333 30.378667-1.322667 64.768-11.946666 101.76a365.696 365.696 0 0 1-43.52 99.072 421.76 421.76 0 0 1-67.413334 83.2 346.666667 346.666667 0 0 1-87.210666 58.197334 236.202667 236.202667 0 0 1-100.437334 21.12 241.28 241.28 0 0 1-84.565333-14.506667c-25.088-9.258667-42.24-26.453333-52.821333-50.218667h-2.645334L100.394667 1024h836.394666A87.125333 87.125333 0 0 0 1024 936.789333V200.789333c-3.968-1.28-7.936-2.56-10.581333-3.925333a118.229333 118.229333 0 0 0-23.765334-2.645333c-23.765333 0-43.605333 5.290667-59.477333 15.872-14.506667 10.581333-27.733333 31.701333-36.992 64.768l-22.442667 77.909333h85.888l21.12 67.413333-55.466666 54.186667h-85.930667l-104.362667 369.92h-150.613333l104.362667-369.92h-62.08l34.346666-121.6h60.8l23.765334-87.210667c7.893333-26.410667 17.194667-52.821333 29.056-76.586666a213.162667 213.162667 0 0 1 44.928-63.445334c18.474667-18.517333 42.24-33.066667 70.016-43.605333 27.733333-10.581333 63.445333-15.872 104.405333-15.872 10.581333 0 19.797333 0 30.378667 1.322667A88.832 88.832 0 0 0 938.154667 0z m280.106667 474.368c-38.314667 0-71.338667 11.861333-99.114667 34.346667-27.733333 22.442667-46.208 52.864-56.789333 89.856-10.581333 36.992-9.258667 67.370667 6.613333 89.813333 13.226667 23.765333 39.637333 34.346667 79.274667 34.346667 38.314667 0 71.338667-11.861333 99.072-34.346667 27.733333-22.442667 47.573333-52.821333 58.154666-89.813333 10.538667-36.992 7.893333-67.413333-6.613333-89.856-14.506667-22.485333-42.282667-34.346667-80.64-34.346667z" p-id="11556"></path></svg>